<?xml version="1.0" standalone="no"?>
<!DOCTYPE svg PUBLIC "-//W3C//DTD SVG 20010904//EN"
 "http://www.w3.org/TR/2001/REC-SVG-20010904/DTD/svg10.dtd">
<svg version="1.0" xmlns="http://www.w3.org/2000/svg"
 width="534.000000pt" height="534.000000pt" viewBox="0 0 534.000000 534.000000"
 preserveAspectRatio="xMidYMid meet">
<metadata>
Created by potrace 1.14, written by Peter Selinger 2001-2017
</metadata>
<g transform="translate(0.000000,534.000000) scale(0.100000,-0.100000)"
fill="#000000" stroke="none">
<path d="M2529 4996 c-2 -3 -43 -7 -91 -11 -47 -3 -96 -8 -108 -10 -12 -2 -41
-7 -65 -9 -23 -3 -85 -15 -136 -26 -52 -12 -103 -23 -114 -25 -30 -7 -194 -60
-245 -81 -52 -21 -204 -106 -305 -172 -260 -168 -540 -464 -714 -757 -113
-191 -138 -260 -88 -253 14 2 38 39 87 135 121 235 218 366 409 553 59 58 116
112 127 120 10 8 51 41 89 71 123 99 314 207 485 274 52 20 104 41 115 45 31
13 183 49 276 65 187 34 548 36 733 5 137 -22 306 -63 376 -90 256 -98 286
-112 299 -132 13 -22 13 -22 -10 -6 -14 8 -61 30 -104 49 -44 18 -83 37 -87
43 -4 6 -10 8 -13 4 -4 -3 -21 -2 -38 3 -90 28 -316 89 -347 94 -19 3 -57 10
-85 15 -27 5 -75 12 -105 15 -69 7 -379 8 -411 1 -13 -3 -46 -8 -74 -11 -47
-4 -75 -8 -135 -20 -60 -12 -77 -16 -105 -21 -44 -8 -222 -59 -290 -84 -82
-29 -241 -106 -293 -141 -24 -16 -46 -29 -51 -29 -4 0 -16 -8 -27 -18 -10 -9
-32 -26 -49 -36 -34 -21 -155 -117 -200 -158 -16 -16 -33 -28 -37 -28 -5 0 -8
-4 -8 -10 0 -18 15 -11 55 28 128 120 390 287 538 341 237 88 340 120 437 135
19 3 46 8 60 11 125 26 551 26 674 0 11 -2 39 -6 61 -9 43 -5 201 -40 250 -55
141 -42 516 -212 555 -251 9 -9 80 -40 92 -40 7 0 -3 15 -22 34 -19 19 -38 32
-42 30 -4 -3 -39 16 -78 41 -38 25 -76 45 -82 45 -9 0 -8 4 1 13 11 10 14 10
18 0 3 -7 9 -13 15 -13 9 0 113 -57 163 -90 12 -8 37 -24 54 -35 17 -10 31
-22 31 -26 0 -4 28 -26 63 -50 34 -23 64 -45 67 -48 3 -3 23 -20 45 -36 43
-32 46 -35 145 -145 36 -40 78 -86 94 -104 35 -39 133 -167 167 -221 34 -52
126 -222 166 -305 89 -186 156 -399 177 -560 3 -25 8 -63 11 -85 11 -77 14
-131 14 -267 l1 -138 24 0 c13 0 26 6 28 13 3 6 4 66 3 132 -2 111 -6 162 -19
255 -3 19 -8 53 -11 75 -11 83 -27 162 -42 210 -23 78 -53 168 -63 190 -6 11
-23 62 -40 112 -67 209 -253 499 -455 709 -44 45 -103 107 -131 138 -29 30
-71 67 -95 82 -24 15 -61 42 -82 60 -20 19 -44 34 -52 34 -8 0 -15 4 -15 9 0
11 -129 97 -210 138 -180 94 -439 188 -600 218 -14 2 -46 9 -71 15 -58 14 -63
15 -124 24 -27 4 -61 10 -75 13 -32 6 -356 14 -361 9z"/>
<path d="M2819 4797 c-18 -26 -54 -129 -70 -204 -10 -49 -13 -53 -46 -59 -61
-12 -87 49 -47 111 20 30 11 47 -11 19 -18 -24 -29 -77 -21 -107 7 -29 43 -47
79 -40 30 6 35 -10 18 -63 -5 -16 -17 -56 -27 -89 -10 -36 -27 -68 -42 -81
-14 -13 -21 -27 -17 -33 5 -9 10 -9 20 -1 9 7 34 9 69 5 143 -17 286 -9 271
15 -4 6 -14 6 -27 -1 -25 -13 -255 -6 -270 9 -5 5 3 42 17 85 13 42 28 96 31
119 5 30 18 55 44 83 89 96 126 178 102 229 -15 33 -51 34 -73 3z m61 -7 c20
-36 2 -91 -54 -167 -42 -56 -61 -64 -52 -21 4 18 9 43 12 55 2 12 8 33 13 45
9 24 11 32 11 47 0 12 40 61 50 61 5 0 14 -9 20 -20z"/>
<path d="M1635 4518 c2 -40 6 -80 9 -88 16 -39 31 -319 22 -385 -4 -25 -18
-57 -30 -72 -22 -25 -25 -26 -54 -14 -101 42 -172 328 -113 453 31 64 77 81
144 53 10 -4 17 -3 17 3 0 6 -10 14 -22 18 -115 40 -188 -49 -182 -222 1 -44
7 -99 13 -121 31 -116 102 -213 156 -213 35 0 75 39 85 84 14 61 -5 368 -26
441 -16 51 8 0 44 -95 71 -187 136 -310 164 -310 6 0 3 10 -6 23 -34 48 -166
351 -180 412 -8 40 -32 105 -37 105 -3 0 -5 -33 -4 -72z"/>
<path d="M2857 4480 c-7 -28 17 -45 36 -25 19 19 25 19 43 0 18 -18 60 -20 70
-3 4 7 3 8 -4 4 -19 -11 -61 5 -68 26 -6 20 -6 19 -28 -1 -28 -26 -39 -27 -31
-1 3 11 2 20 -3 20 -5 0 -12 -9 -15 -20z"/>
<path d="M2200 4463 c0 -12 -3 -14 -11 -6 -16 16 -56 3 -68 -23 -27 -60 5
-109 41 -62 10 13 20 31 24 41 5 16 7 16 22 -2 17 -20 30 -24 67 -22 25 1 102
50 110 68 2 8 -13 -1 -35 -18 -30 -24 -50 -32 -82 -33 -43 -1 -43 -1 -46 37
-3 36 -22 54 -22 20z m-20 -28 c0 -24 -30 -65 -47 -65 -11 0 -14 7 -9 28 10
40 56 71 56 37z"/>
<path d="M3061 4456 c-28 -29 -24 -56 9 -73 30 -15 104 -18 95 -3 -4 6 -11 8
-16 4 -5 -3 -28 -3 -49 1 -33 6 -40 11 -40 30 0 23 33 55 57 55 6 0 14 -10 16
-22 5 -20 5 -20 4 2 -3 36 -45 39 -76 6z"/>
<path d="M4050 4411 c0 -8 29 -37 31 -30 7 35 6 39 -12 39 -10 0 -19 -4 -19
-9z"/>
<path d="M3260 4386 c-43 -47 -2 -73 62 -40 16 9 27 11 23 4 -13 -21 5 -59 35
-75 17 -9 52 -14 87 -14 l58 2 -69 7 c-50 5 -73 12 -82 25 -18 25 -18 50 1 65
19 15 20 31 2 24 -8 -3 -20 2 -27 11 -19 23 -63 18 -90 -9z m70 -20 c-23 -21
-70 -29 -70 -12 0 7 6 18 13 24 32 26 86 15 57 -12z"/>
<path d="M1924 4388 c-5 -8 -2 -9 9 -5 12 4 17 1 17 -10 0 -9 7 -24 16 -34 22
-24 67 -8 95 34 l22 32 -31 -32 c-40 -42 -70 -43 -85 -3 -12 31 -30 39 -43 18z"/>
<path d="M3218 4383 c7 -3 16 -2 19 1 4 3 -2 6 -13 5 -11 0 -14 -3 -6 -6z"/>
<path d="M4096 4372 c-2 -4 23 -32 57 -62 108 -96 223 -223 293 -325 111 -162
136 -203 198 -330 103 -211 186 -486 211 -695 3 -30 9 -64 12 -74 3 -11 6 -89
8 -175 1 -86 5 -155 8 -153 4 1 10 2 15 2 12 0 -5 361 -23 461 -45 260 -134
521 -247 722 -60 106 -180 283 -233 344 -5 6 -30 35 -55 64 -54 64 -198 206
-222 220 -9 5 -19 6 -22 1z"/>
<path d="M1900 4340 c-14 -33 -30 -40 -30 -12 0 14 -2 14 -9 3 -11 -18 5 -55
20 -46 11 7 41 76 35 82 -2 2 -9 -10 -16 -27z"/>
<path d="M1108 4277 c-37 -40 -82 -92 -100 -117 -18 -25 -35 -47 -38 -50 -7
-7 -70 -110 -70 -115 0 -3 -12 -30 -26 -60 -19 -40 -24 -59 -16 -67 19 -19 41
-1 52 43 29 107 110 244 207 351 32 35 61 65 66 66 4 2 7 8 7 13 0 19 -17 6
-82 -64z"/>
<path d="M3552 4294 c-12 -8 -22 -21 -21 -27 4 -30 -3 -37 -34 -37 -38 0 -73
-22 -63 -38 12 -20 86 -12 86 9 0 6 -8 5 -19 -1 -25 -13 -61 -13 -61 0 0 14
38 20 108 17 61 -3 75 8 18 15 l-28 3 22 28 c27 34 23 53 -8 31z"/>
<path d="M4054 4215 c-3 -8 -43 -35 -87 -61 -168 -96 -287 -187 -287 -219 0
-12 34 -3 74 19 67 37 206 97 260 112 26 7 46 11 45 9 -2 -1 -42 -29 -89 -60
-47 -31 -97 -68 -112 -83 -26 -24 -35 -51 -23 -64 4 -3 43 8 88 24 238 87 371
120 412 104 17 -6 17 -7 -1 -27 -11 -12 -110 -82 -221 -156 -112 -73 -203
-140 -203 -148 0 -21 5 -19 63 23 29 21 111 78 182 127 153 103 186 129 203
161 12 22 11 25 -13 34 -13 5 -30 8 -37 5 -7 -2 -32 -6 -55 -9 -76 -10 -152
-32 -323 -96 -30 -11 -62 -20 -70 -20 -20 0 35 47 138 117 45 31 82 62 82 70
0 33 -91 6 -277 -84 -44 -22 -79 -35 -77 -29 5 12 146 107 249 169 65 38 105
72 105 87 0 15 -20 12 -26 -5z"/>
<path d="M1040 3912 c-31 -15 -107 -97 -129 -139 -6 -13 -18 -23 -26 -23 -28
0 -45 -30 -40 -71 5 -39 2 -44 -60 -111 -35 -38 -71 -82 -78 -96 -8 -15 -25
-47 -39 -72 -13 -25 -41 -94 -61 -153 -48 -139 -69 -171 -189 -289 -87 -85
-112 -118 -92 -118 3 0 19 9 35 21 l30 21 -2 -71 c-2 -64 4 -92 15 -80 2 2 6
44 9 93 l4 88 67 65 c65 62 123 97 176 106 14 2 63 -4 109 -13 114 -23 196
-24 250 -5 39 13 119 66 162 107 8 7 44 37 79 67 73 61 91 81 85 91 -3 4 -82
8 -177 9 -197 2 -255 -9 -354 -64 -33 -19 -83 -57 -110 -85 -58 -61 -123 -114
-130 -107 -3 2 4 20 15 38 11 19 32 75 46 124 44 144 111 261 196 342 36 33
51 36 224 45 41 2 86 12 109 23 44 21 78 69 70 100 -4 18 -10 55 -13 93 0 7
-16 19 -34 27 -18 7 -40 22 -50 33 -21 23 -54 25 -97 4z m78 -24 c-3 -7 -25
-23 -51 -36 -26 -13 -72 -46 -102 -74 -37 -34 -55 -45 -55 -34 0 10 11 28 25
42 14 14 25 28 25 33 0 10 42 46 77 65 35 19 86 21 81 4z m75 -40 c16 -12 16
-16 -4 -56 -25 -49 -81 -86 -163 -108 -65 -17 -110 -6 -99 23 10 27 90 99 137
121 71 35 102 40 129 20z m23 -101 c-9 -51 -78 -96 -149 -97 -42 0 -48 21 -8
27 37 5 83 30 116 62 30 29 45 32 41 8z m80 -439 c7 -8 -232 -202 -270 -219
-50 -23 -118 -24 -222 -4 -44 8 -91 16 -106 17 -16 1 -28 5 -28 9 0 14 210
101 272 113 13 2 43 9 68 14 25 6 63 13 84 16 60 10 58 19 -2 12 -128 -15
-233 -44 -345 -95 -66 -30 -67 -30 -50 -7 18 24 159 117 198 130 11 4 38 10
60 13 22 3 42 7 44 9 5 5 291 -3 297 -8z"/>
<path d="M4153 3714 c-28 -12 -13 -57 31 -100 30 -28 41 -45 34 -52 -7 -7 -3
-14 12 -22 12 -6 24 -9 28 -6 3 3 -1 6 -8 6 -11 0 -11 3 -2 12 16 16 15 28 -3
28 -23 0 -95 75 -95 99 0 19 2 20 23 10 20 -11 21 -11 8 4 -16 20 -1 23 18 5
11 -11 13 -10 9 2 -5 16 -34 23 -55 14z"/>
<path d="M439 3638 c-7 -13 -53 -75 -104 -138 -131 -164 -146 -215 -100 -345
67 -190 73 -211 59 -236 -11 -22 -44 -129 -57 -187 -6 -24 -3 -26 46 -36 l28
-7 -2 94 c-2 84 0 99 26 152 16 33 36 69 44 79 15 18 15 19 -2 13 -15 -6 -16
-2 -12 25 3 18 9 37 14 43 4 5 12 23 19 38 11 26 11 27 -9 17 -20 -11 -21 -10
-14 77 8 111 14 170 20 208 3 21 0 18 -9 -12 -8 -22 -17 -74 -20 -115 -12
-146 -18 -183 -36 -203 -10 -11 -20 -36 -22 -55 -3 -32 -6 -26 -37 60 -40 111
-44 174 -14 240 22 49 172 244 181 235 5 -5 8 -45 15 -206 5 -99 -7 -197 -28
-253 -22 -54 -11 -57 13 -4 24 51 39 128 36 183 -1 22 -4 111 -6 197 -1 87 -6
158 -10 158 -4 0 -13 -10 -19 -22z"/>
<path d="M4270 3535 c0 -3 15 -11 33 -18 l32 -14 -32 -17 c-19 -9 -33 -24 -33
-35 0 -17 69 -95 77 -87 2 2 -13 20 -34 41 l-38 38 34 27 c18 16 30 33 27 38
-6 10 -66 34 -66 27z"/>
<path d="M4331 3306 c-10 -11 -7 -17 11 -30 12 -9 28 -16 35 -16 16 0 16 -3 1
-34 -16 -36 4 -95 40 -120 l27 -19 -27 29 c-36 39 -44 78 -24 109 l17 26 26
-21 c14 -11 31 -20 37 -20 6 1 -1 8 -16 16 -51 27 -34 39 64 43 105 4 182 -39
132 -76 -16 -12 -16 -13 -1 -13 18 0 33 42 22 60 -17 27 -86 47 -153 45 -37
-1 -75 -5 -84 -10 -13 -5 -18 -3 -18 9 0 31 -67 48 -89 22z m71 -28 c-8 -8
-21 -7 -44 3 -32 13 -32 13 -8 20 31 7 67 -8 52 -23z"/>
<path d="M4510 3195 c14 -8 32 -14 40 -14 8 0 0 6 -19 14 -42 19 -54 19 -21 0z"/>
<path d="M4570 3180 c0 -5 9 -8 20 -7 21 1 18 10 -5 13 -8 1 -15 -2 -15 -6z"/>
<path d="M2112 3120 c-136 -75 -345 -281 -469 -462 -32 -47 -53 -68 -67 -68
-51 -1 -171 -23 -361 -66 -154 -34 -449 -94 -493 -100 -26 -3 -49 -7 -52 -9
-13 -8 -145 -19 -221 -20 -108 0 -129 14 -129 83 0 35 11 65 46 130 25 46 43
90 40 98 -8 21 -35 17 -67 -10 -23 -19 -36 -23 -67 -19 -25 3 -50 0 -69 -10
-48 -25 -183 -163 -183 -187 0 -46 49 -32 149 44 158 120 153 118 126 53 -8
-20 -15 -59 -15 -87 0 -55 14 -76 71 -105 70 -37 275 -13 684 80 88 20 171 38
185 41 14 3 84 18 155 34 72 16 149 31 173 35 l43 7 -31 -60 c-70 -135 -36
-209 98 -217 42 -2 95 7 202 36 80 21 159 43 177 49 18 6 40 13 50 14 10 2 45
11 78 21 409 112 664 163 847 169 20 1 40 5 45 10 8 8 -211 1 -225 -8 -4 -2
-29 -6 -57 -10 -122 -14 -420 -85 -701 -165 -234 -67 -376 -101 -421 -101 -57
0 -88 28 -79 74 11 58 69 159 104 181 176 107 447 349 540 482 27 38 27 48 2
73 -27 27 -45 25 -108 -10z m62 -62 c-61 -91 -366 -374 -466 -433 -32 -18 -31
-16 21 49 29 38 63 80 75 94 38 47 170 179 231 232 60 52 155 113 164 105 2
-3 -9 -24 -25 -47z m-1927 -426 c-10 -10 -38 -34 -65 -52 -51 -35 -25 -7 38
43 41 31 50 34 27 9z"/>
<path d="M4433 3053 c-7 -2 -12 -17 -12 -31 2 -24 2 -24 6 -4 5 24 13 28 30
11 7 -7 19 -9 28 -5 14 5 15 9 5 21 -12 15 -34 18 -57 8z m42 -13 c3 -5 2 -10
-4 -10 -5 0 -13 5 -16 10 -3 6 -2 10 4 10 5 0 13 -4 16 -10z"/>
<path d="M4430 2965 c0 -6 7 -21 16 -33 25 -36 8 -38 -31 -3 -40 35 -53 38
-62 14 -8 -21 43 -66 68 -60 13 4 28 -5 45 -26 24 -29 25 -29 10 -4 -21 35
-12 50 25 42 21 -5 29 -3 29 8 0 22 -10 26 -36 17 -21 -8 -27 -5 -44 23 -11
17 -20 27 -20 22z m-35 -31 c28 -18 33 -34 11 -34 -16 0 -46 26 -46 41 0 13 7
11 35 -7z"/>
<path d="M3808 2703 c-62 -25 -117 -49 -123 -53 -19 -15 -208 -90 -226 -90
-16 0 -19 7 -18 38 2 60 0 69 -20 75 -26 6 -105 -35 -230 -121 -58 -39 -107
-69 -110 -67 -6 7 80 96 125 129 15 12 16 16 5 30 -20 24 -47 19 -81 -14 -18
-17 -36 -27 -45 -24 -8 4 -15 1 -15 -5 0 -6 5 -11 11 -11 6 0 1 -13 -10 -29
-32 -45 -43 -81 -30 -97 18 -22 33 -17 121 39 103 66 211 127 226 127 7 0 12
-11 12 -25 0 -14 11 -37 25 -51 31 -31 37 -29 220 48 77 33 168 70 203 83 61
24 79 21 45 -6 -27 -22 -80 -111 -89 -149 -10 -44 -6 -100 8 -118 41 -49 149
-51 428 -8 283 44 778 126 823 135 23 6 62 13 87 16 60 9 161 32 168 39 8 9
-27 7 -73 -3 -22 -5 -58 -12 -80 -15 -22 -3 -56 -8 -75 -11 -19 -3 -93 -14
-165 -25 -166 -27 -170 -27 -230 -36 -27 -3 -59 -8 -70 -10 -11 -2 -40 -7 -65
-10 -25 -3 -52 -7 -60 -9 -8 -3 -44 -9 -80 -14 -36 -5 -132 -21 -215 -36 -82
-14 -191 -27 -241 -28 -109 -2 -129 9 -121 60 6 35 17 53 104 170 29 39 53 76
53 81 0 15 -28 35 -54 37 -14 2 -75 -17 -138 -42z"/>
<path d="M389 2620 c-2 -13 -2 -35 0 -117 1 -64 13 -105 25 -92 9 9 -6 219
-16 219 -4 0 -8 -4 -9 -10z"/>
<path d="M241 2563 c-23 -16 -24 -19 -17 -117 3 -56 8 -114 11 -131 13 -67 71
-265 94 -320 5 -11 21 -51 36 -90 26 -64 56 -130 136 -301 26 -56 76 -135 117
-186 189 -234 483 -520 684 -666 75 -55 288 -177 347 -198 25 -10 51 -21 56
-25 11 -8 118 -50 220 -85 121 -43 345 -88 495 -102 89 -7 306 -9 400 -3 142
10 382 55 515 98 136 43 338 127 434 181 25 14 37 40 24 53 -8 8 -39 -3 -119
-43 -92 -45 -215 -98 -230 -98 -2 0 11 24 28 52 65 105 165 180 242 180 28 0
93 -20 189 -57 147 -57 179 -63 257 -50 68 11 173 77 296 185 32 29 82 63 109
77 48 24 57 33 56 50 0 5 -96 9 -213 11 -117 2 -238 4 -268 4 -115 3 -217 -31
-337 -113 -63 -43 -170 -99 -188 -99 -16 0 48 74 150 175 125 122 170 150 354
215 180 64 290 128 393 231 60 59 82 69 133 59 45 -9 62 -1 77 35 9 22 38 51
87 87 98 70 130 111 138 175 5 47 4 52 -26 78 -17 16 -31 37 -31 47 0 30 -36
58 -76 58 -19 0 -45 5 -56 11 -52 28 -146 -39 -167 -119 -11 -38 -21 -182 -20
-274 0 -59 -11 -81 -75 -142 -112 -106 -225 -165 -436 -226 -41 -12 -98 -34
-127 -50 l-52 -28 17 34 c9 18 56 73 103 121 128 131 171 208 198 353 11 57
10 464 0 475 -10 9 -38 -5 -44 -23 -3 -10 -26 -39 -50 -65 -25 -26 -57 -65
-72 -85 -15 -20 -49 -61 -75 -90 -70 -78 -111 -167 -113 -250 -2 -37 4 -96 11
-132 25 -113 29 -143 29 -210 -1 -60 -4 -70 -44 -128 -23 -35 -57 -75 -74 -90
-109 -94 -329 -369 -391 -489 -9 -18 -20 -32 -24 -31 -4 1 -38 -8 -75 -20 -38
-13 -92 -27 -120 -33 -314 -61 -592 -71 -882 -30 -108 16 -349 80 -430 116
-16 7 -68 29 -115 48 -226 93 -445 235 -615 398 -149 143 -171 166 -215 218
-25 30 -58 70 -75 89 -50 59 -108 126 -155 182 -25 29 -49 58 -55 64 -77 88
-174 323 -216 521 -11 50 -22 101 -25 114 -3 13 -11 67 -19 119 -13 88 -17 98
-50 127 -19 18 -35 41 -36 51 0 11 -2 30 -3 44 -2 14 0 37 5 53 9 31 3 33 -30
10z m3943 -717 c0 -149 -2 -183 -24 -281 -19 -88 -72 -193 -130 -257 -17 -18
-30 -36 -30 -40 0 -4 -10 -12 -22 -19 -17 -9 -20 -9 -15 2 86 195 144 385 154
509 6 76 0 94 -11 30 -26 -164 -53 -276 -90 -373 -24 -64 -79 -173 -95 -190
-5 -5 -11 20 -15 55 -10 92 -16 129 -26 167 -16 58 -7 191 16 241 12 25 59 88
105 141 46 53 102 119 124 146 33 41 42 48 49 35 5 -8 9 -83 10 -166z m550 68
c13 -5 10 -13 -18 -41 -42 -43 -86 -130 -93 -180 -9 -72 -24 -61 -22 16 2 89
33 162 82 191 37 23 31 22 51 14z m120 -30 c44 -44 -19 -185 -128 -286 -28
-27 -54 -48 -58 -48 -16 0 -38 34 -38 60 0 41 45 156 82 211 48 71 108 98 142
63z m64 -117 c2 -14 -6 -43 -17 -65 -24 -47 -157 -172 -183 -172 -24 0 -17 12
34 58 44 40 84 96 116 165 24 51 45 57 50 14z m-523 -822 c61 -2 119 -4 129
-5 38 0 -254 -214 -328 -240 -64 -22 -148 -20 -216 4 -25 8 -87 31 -139 49
l-94 34 34 11 c19 6 54 14 79 17 25 3 56 8 70 10 35 5 131 14 220 20 85 6 181
22 213 35 l22 9 -22 0 c-12 1 -33 -3 -46 -8 -24 -9 -75 -15 -257 -26 -102 -7
-179 -13 -240 -21 l-45 -6 30 17 c166 94 236 115 375 109 58 -3 155 -6 215 -9z"/>
<path d="M4924 2499 c-4 -7 -8 -30 -9 -53 -3 -40 -11 -98 -20 -146 -5 -24 -15
-79 -20 -110 -2 -8 -8 -33 -13 -55 -24 -90 -21 -124 11 -112 21 8 40 78 73
262 4 23 11 86 20 168 5 53 4 57 -14 57 -12 0 -24 -5 -28 -11z"/>
<path d="M4877 2493 c-7 -10 -12 -40 -22 -116 -3 -26 -10 -71 -16 -100 -6 -29
-12 -63 -14 -77 -1 -14 -8 -43 -14 -65 -19 -60 -24 -115 -13 -115 13 0 26 41
51 160 25 119 30 143 37 205 3 28 7 59 9 71 4 24 -10 51 -18 37z"/>
<path d="M410 2330 c0 -29 15 -107 41 -220 47 -196 170 -482 286 -662 44 -69
203 -258 217 -258 6 0 -9 19 -61 79 -18 20 -33 39 -33 44 0 4 -8 15 -17 25
-38 38 -170 257 -237 394 -63 130 -141 373 -160 503 -15 98 -18 115 -27 121
-5 3 -9 -9 -9 -26z"/>
<path d="M685 2266 c-77 -35 -98 -96 -49 -141 15 -14 32 -25 38 -25 6 0 -1 8
-14 17 -33 22 -40 33 -40 64 0 30 30 61 80 82 19 9 31 16 25 16 -5 0 -23 -6
-40 -13z"/>
<path d="M779 2259 c32 -13 49 -38 46 -66 -1 -12 2 -20 6 -17 27 17 -21 95
-58 93 -14 0 -12 -3 6 -10z"/>
<path d="M698 2083 c28 -6 47 -37 29 -50 -23 -19 -45 -22 -62 -9 -14 10 -15
16 -6 34 6 12 9 22 7 22 -11 0 -26 -39 -20 -54 9 -23 28 -26 75 -11 24 8 38
14 31 14 -7 1 -11 5 -8 9 9 16 -25 52 -47 51 l-22 -2 23 -4z"/>
<path d="M726 2001 c-28 -10 -52 -23 -54 -29 -5 -17 6 -15 25 4 24 23 58 14
58 -16 0 -19 -7 -26 -30 -32 l-30 -7 29 2 c37 3 56 29 38 57 -10 17 -10 20 2
20 8 0 18 5 21 10 8 12 2 12 -59 -9z"/>
<path d="M670 1940 c0 -5 5 -10 11 -10 5 0 7 5 4 10 -3 6 -8 10 -11 10 -2 0
-4 -4 -4 -10z"/>
<path d="M724 1894 c-10 -8 -13 -13 -6 -9 7 4 28 -3 47 -15 31 -19 36 -20 41
-6 15 39 -44 61 -82 30z m74 -11 c5 -18 -19 -16 -43 3 -19 15 -19 15 9 12 16
-2 31 -9 34 -15z"/>
<path d="M710 1858 c0 -9 7 -19 16 -22 15 -6 15 -4 3 11 -7 10 -15 20 -16 22
-2 2 -3 -3 -3 -11z"/>
<path d="M850 1855 c-14 -8 -20 -14 -15 -14 6 0 21 6 35 14 14 8 21 14 15 14
-5 0 -21 -6 -35 -14z"/>
<path d="M770 1820 c-19 -11 -30 -19 -25 -19 6 0 26 8 45 19 19 11 31 19 25
19 -5 0 -26 -8 -45 -19z"/>
<path d="M816 1799 c3 -5 12 -9 20 -9 19 0 18 -25 -2 -44 -8 -9 -11 -16 -5
-16 14 0 34 39 28 54 -3 7 -15 16 -26 19 -12 3 -19 1 -15 -4z"/>
<path d="M770 1785 c-6 -8 -10 -20 -7 -27 4 -8 6 -7 6 4 1 9 9 22 19 27 9 6
12 11 6 11 -6 0 -17 -7 -24 -15z"/>
<path d="M778 1728 c5 -5 16 -8 23 -6 8 3 3 7 -10 11 -17 4 -21 3 -13 -5z"/>
<path d="M857 1713 c-10 -10 -8 -33 3 -33 5 0 7 7 3 17 -5 13 -2 15 15 11 12
-4 22 -2 22 3 0 10 -33 12 -43 2z"/>
<path d="M803 1684 c-3 -8 1 -23 10 -31 17 -17 47 -11 47 9 0 10 -3 9 -9 -1
-13 -21 -44 -5 -38 19 6 24 -1 27 -10 4z"/>
<path d="M912 1573 c-28 -24 -34 -73 -10 -73 9 0 9 3 1 11 -15 15 -6 39 21 61
12 10 18 18 15 18 -4 0 -16 -8 -27 -17z"/>
<path d="M962 1566 c7 -8 15 -12 17 -11 5 6 -10 25 -20 25 -5 0 -4 -6 3 -14z"/>
<path d="M950 1499 l-35 -30 39 22 c31 18 42 20 57 11 23 -15 25 -9 3 12 -20
21 -23 20 -64 -15z"/>
<path d="M1002 1458 c-39 -19 -42 -78 -4 -78 16 1 16 1 0 11 -22 12 -24 39 -4
39 8 0 26 -4 40 -10 30 -11 41 1 26 30 -12 22 -24 24 -58 8z m46 -10 c21 -21
13 -27 -19 -16 -23 8 -27 13 -17 19 17 12 22 11 36 -3z"/>
<path d="M1077 1393 c-3 -5 5 -8 18 -8 13 0 21 3 18 8 -2 4 -10 7 -18 7 -8 0
-16 -3 -18 -7z"/>
<path d="M1027 1363 c-14 -13 -7 -33 16 -43 21 -10 21 -10 3 4 -10 9 -16 22
-13 31 7 16 4 19 -6 8z"/>
<path d="M1070 1343 c0 -21 3 -24 9 -14 5 8 7 20 4 28 -8 21 -13 15 -13 -14z"/>
<path d="M1077 1302 c-31 -26 -54 -49 -51 -51 2 -2 13 4 23 13 18 17 20 17 40
-3 26 -26 35 -26 61 1 25 27 26 60 1 75 -16 10 -26 5 -74 -35z m81 2 c4 -25
-30 -57 -52 -48 -27 10 -18 55 14 67 23 8 35 2 38 -19z"/>
<path d="M1168 1253 c-26 -30 -28 -50 -7 -69 10 -9 19 -12 19 -7 0 6 -6 13
-14 16 -19 8 -9 45 16 58 42 23 65 -16 31 -53 -16 -18 -16 -18 0 -12 22 8 33
50 17 69 -17 20 -44 19 -62 -2z"/>
<path d="M1263 1203 c-16 -6 -17 -39 -3 -48 8 -5 7 -11 -1 -21 -16 -20 -28
-17 -39 9 -9 22 -9 22 -9 1 -1 -12 6 -25 15 -28 21 -8 20 -8 38 10 12 12 13
20 6 35 -13 23 -5 40 15 32 8 -3 15 -3 15 0 0 8 -24 14 -37 10z"/>
<path d="M966 1170 c8 -14 69 -81 149 -164 22 -23 76 -69 120 -104 44 -34 85
-66 92 -72 33 -28 167 -113 233 -148 168 -90 435 -189 583 -216 15 -2 35 -7
45 -10 9 -2 39 -7 66 -11 27 -3 53 -8 57 -11 41 -25 527 -25 659 1 14 3 45 7
70 9 56 6 129 22 194 43 61 20 43 30 -22 13 -56 -14 -64 -16 -167 -35 -44 -8
-102 -17 -130 -20 -27 -3 -70 -8 -94 -11 -47 -6 -335 -6 -386 0 -16 2 -57 6
-90 10 -100 12 -283 55 -410 97 -114 39 -345 144 -424 193 -103 65 -217 140
-221 145 -3 3 -27 24 -55 46 -27 22 -59 49 -70 60 -127 124 -206 197 -199 185z"/>
<path d="M1270 1084 c0 -8 5 -12 10 -9 6 4 8 11 5 16 -9 14 -15 11 -15 -7z"/>
<path d="M1402 1063 c-7 -2 -17 -14 -23 -26 -11 -21 -10 -21 11 1 15 16 30 22
46 19 13 -2 21 0 18 4 -6 10 -31 11 -52 2z"/>
<path d="M1467 1019 c-38 -22 -39 -89 -2 -89 8 0 15 -6 15 -12 0 -7 6 -4 12 7
6 11 14 22 18 25 4 3 12 14 17 25 9 15 7 23 -9 37 -24 21 -27 21 -51 7z m41
-11 c18 -22 18 -25 -2 -47 -33 -36 -62 -26 -56 19 1 15 27 40 41 40 3 0 11 -6
17 -12z"/>
<path d="M1376 996 c6 -15 34 -30 34 -18 0 4 -9 13 -20 19 -16 11 -18 10 -14
-1z"/>
<path d="M1636 971 c-9 -16 -12 -31 -9 -35 4 -3 1 -6 -5 -6 -6 0 -18 -13 -27
-30 -14 -27 -18 -29 -38 -17 -12 6 -25 17 -29 22 -5 6 -8 6 -8 -1 0 -6 7 -17
15 -24 8 -7 15 -9 15 -4 0 4 5 3 12 -4 9 -9 19 -4 45 24 36 40 57 37 51 -7 -3
-16 0 -25 5 -22 6 4 8 -2 5 -14 -4 -16 -1 -19 19 -15 13 2 25 8 28 12 3 5 -4
6 -15 3 -26 -7 -26 14 0 22 26 8 41 -2 33 -23 -5 -13 -3 -15 7 -5 16 15 6 43
-15 43 -9 0 -25 -5 -36 -10 -16 -9 -19 -7 -19 15 0 14 -9 30 -19 37 -18 11
-18 14 -5 40 8 15 12 28 10 28 -3 0 -12 -13 -20 -29z"/>
<path d="M1560 973 c-16 -7 -39 -33 -40 -45 0 -4 11 4 25 18 22 22 28 24 43
12 15 -12 16 -11 3 5 -7 9 -14 17 -15 16 0 0 -8 -3 -16 -6z"/>
<path d="M1936 844 c-4 -9 -4 -19 -1 -22 2 -3 7 3 11 12 4 9 4 19 1 22 -2 3
-7 -3 -11 -12z"/>
<path d="M1637 843 c-4 -3 -7 -11 -7 -17 0 -6 5 -5 12 2 6 6 9 14 7 17 -3 3
-9 2 -12 -2z"/>
<path d="M1768 839 c-10 -5 -18 -15 -18 -20 0 -6 7 -3 16 6 9 9 24 15 33 13
22 -4 26 -42 6 -62 -20 -20 -45 -21 -45 -2 0 8 -4 18 -10 21 -6 4 -7 -2 -1
-17 5 -14 18 -24 33 -26 19 -2 27 4 41 34 17 35 17 37 0 50 -22 16 -32 17 -55
3z"/>
<path d="M1670 810 c0 -9 39 -25 45 -18 2 2 -7 8 -21 15 -13 6 -24 7 -24 3z"/>
<path d="M1842 790 c-24 -38 -13 -68 30 -83 24 -9 53 56 38 84 -14 25 -52 24
-68 -1z m62 -6 c3 -8 0 -25 -6 -37 -7 -12 -11 -25 -10 -28 4 -17 -38 5 -43 22
-13 41 44 83 59 43z"/>
<path d="M1936 765 c-9 -9 -16 -22 -16 -28 0 -6 7 -1 16 11 16 23 49 30 57 12
3 -6 4 -5 3 2 -4 20 -41 21 -60 3z"/>
<path d="M2037 753 c-13 -13 -7 -38 13 -51 11 -7 17 -18 14 -27 -7 -18 -41
-20 -47 -2 -2 7 -3 6 -3 -3 2 -22 38 -25 53 -4 11 15 10 21 -8 40 -21 22 -18
51 3 38 7 -4 8 -2 4 4 -8 13 -19 15 -29 5z"/>
<path d="M1990 715 c-11 -29 -44 -33 -60 -7 -7 10 -10 11 -7 3 6 -24 35 -37
54 -25 15 9 38 54 27 54 -2 0 -9 -11 -14 -25z"/>
<path d="M2892 720 c0 -14 2 -19 5 -12 2 6 2 18 0 25 -3 6 -5 1 -5 -13z"/>
<path d="M2710 645 c0 -49 3 -85 7 -81 8 7 5 157 -3 165 -2 2 -4 -35 -4 -84z"/>
<path d="M2181 696 c-7 -8 -11 -30 -9 -48 2 -25 8 -33 23 -34 15 -1 16 0 3 3
-29 7 -21 28 18 46 30 15 34 20 24 32 -16 19 -44 19 -59 1z m44 -6 c3 -6 -4
-14 -17 -19 -27 -10 -33 -7 -25 14 7 17 33 20 42 5z"/>
<path d="M2597 697 c-3 -8 -2 -20 3 -26 5 -9 8 -4 8 13 0 29 -3 32 -11 13z"/>
<path d="M3035 700 c-3 -6 1 -7 9 -4 18 7 21 14 7 14 -6 0 -13 -4 -16 -10z"/>
<path d="M2351 664 c-27 -34 -26 -49 1 -76 l21 -21 23 26 c12 14 21 34 19 44
-2 10 -4 21 -4 25 -1 4 -10 12 -20 18 -16 8 -23 5 -40 -16z m50 -11 c8 -9 12
-19 11 -22 -2 -3 -8 -14 -13 -23 -13 -23 -45 -23 -51 0 -7 25 9 62 25 62 8 0
21 -7 28 -17z"/>
<path d="M2942 678 c-7 -7 -12 -16 -12 -21 0 -5 7 -1 16 8 15 15 18 15 35 -1
23 -20 24 -47 4 -64 -17 -14 -33 -6 -45 24 -8 20 -9 20 -9 1 -1 -28 34 -49 59
-35 26 14 26 61 2 83 -22 20 -34 21 -50 5z"/>
<path d="M3033 670 c2 -8 12 -17 23 -19 10 -2 22 -8 26 -15 6 -8 8 -8 8 1 0 7
-9 17 -20 23 -11 6 -20 7 -20 3 0 -4 -5 -1 -11 7 -9 13 -10 13 -6 0z"/>
<path d="M2433 653 c0 -7 4 -13 9 -13 4 0 8 5 8 10 0 6 9 10 20 10 13 0 22
-10 29 -32 9 -31 9 -31 10 -7 1 15 -5 32 -13 38 -17 15 -63 10 -63 -6z"/>
<path d="M2545 657 c-20 -16 -23 -76 -4 -88 19 -12 46 -11 55 2 3 6 8 26 10
44 2 26 -2 34 -21 43 -17 8 -27 7 -40 -1z m47 -25 c7 -25 -9 -62 -26 -62 -22
0 -35 31 -25 58 10 26 45 29 51 4z"/>
<path d="M2760 658 c-40 -15 -17 -98 28 -98 12 0 9 4 -8 13 -17 9 -26 22 -28
45 -3 28 0 32 22 32 25 0 44 -30 31 -50 -3 -5 -1 -18 5 -27 8 -14 10 -5 8 37
-3 59 -11 66 -58 48z"/>
<path d="M2847 663 c-4 -3 -7 -11 -7 -17 0 -6 4 -5 9 2 5 8 17 12 27 10 14 -2
19 -12 19 -38 0 -45 -27 -53 -49 -13 -18 33 -21 25 -4 -12 9 -21 18 -25 45
-23 24 1 32 6 28 16 -3 7 -5 29 -5 48 0 31 -3 34 -28 34 -16 0 -32 -3 -35 -7z"/>
<path d="M2622 625 c-2 -52 9 -67 43 -63 21 2 29 9 30 25 1 12 -2 28 -7 35 -7
10 -8 10 -7 -2 4 -40 -1 -51 -23 -48 -19 2 -24 11 -29 48 l-6 45 -1 -40z"/>
<path d="M2432 600 c0 -19 2 -27 5 -17 2 9 2 25 0 35 -3 9 -5 1 -5 -18z"/>
<path d="M3036 609 c6 -11 41 -12 47 -1 3 4 -8 7 -24 8 -15 1 -26 -3 -23 -7z"/>
</g>
</svg>
